<svg xmlns="http://www.w3.org/2000/svg" viewBox="0 0 800 600" role="img"
     aria-label="Ryzen 5 5600 Desktop Processor">
  <defs>
    <linearGradient id="bg" x1="0" y1="0" x2="1" y2="1">
      <stop offset="0%" stop-color="#f8fafc"/>
      <stop offset="100%" stop-color="#e2e8f0"/>
    </linearGradient>
    <linearGradient id="screen" x1="0" y1="0" x2="1" y2="1">
      <stop offset="0%" stop-color="#0f172a"/>
      <stop offset="100%" stop-color="#334155"/>
    </linearGradient>
    <linearGradient id="metal" x1="0" y1="0" x2="1" y2="1">
      <stop offset="0%" stop-color="#e2e8f0"/>
      <stop offset="45%" stop-color="#94a3b8"/>
      <stop offset="100%" stop-color="#cbd5e1"/>
    </linearGradient>
    <filter id="soft" x="-20%" y="-20%" width="140%" height="140%">
      <feDropShadow dx="0" dy="10" stdDeviation="14" flood-color="#0f172a" flood-opacity="0.18"/>
    </filter>
  </defs>

  <rect width="800" height="600" fill="url(#bg)"/>
  <circle cx="690" cy="110" r="150" fill="#ed1c24" opacity="0.10"/>
  <ellipse cx="400" cy="530" rx="250" ry="26" fill="#0f172a" opacity="0.07"/>

  <g filter="url(#soft)">
    
    <rect x="251" y="141" width="298" height="298" rx="10" fill="#1f2937"/>
    <circle cx="269.0" cy="158.0" r="5" fill="#ed1c24" opacity="0.5"/><circle cx="269.0" cy="422.0" r="5" fill="#ed1c24" opacity="0.5"/><circle cx="268.0" cy="159.0" r="5" fill="#ed1c24" opacity="0.5"/><circle cx="532.0" cy="159.0" r="5" fill="#ed1c24" opacity="0.5"/><circle cx="290.8" cy="158.0" r="5" fill="#ed1c24" opacity="0.5"/><circle cx="290.8" cy="422.0" r="5" fill="#ed1c24" opacity="0.5"/><circle cx="268.0" cy="180.8" r="5" fill="#ed1c24" opacity="0.5"/><circle cx="532.0" cy="180.8" r="5" fill="#ed1c24" opacity="0.5"/><circle cx="312.7" cy="158.0" r="5" fill="#ed1c24" opacity="0.5"/><circle cx="312.7" cy="422.0" r="5" fill="#ed1c24" opacity="0.5"/><circle cx="268.0" cy="202.7" r="5" fill="#ed1c24" opacity="0.5"/><circle cx="532.0" cy="202.7" r="5" fill="#ed1c24" opacity="0.5"/><circle cx="334.5" cy="158.0" r="5" fill="#ed1c24" opacity="0.5"/><circle cx="334.5" cy="422.0" r="5" fill="#ed1c24" opacity="0.5"/><circle cx="268.0" cy="224.5" r="5" fill="#ed1c24" opacity="0.5"/><circle cx="532.0" cy="224.5" r="5" fill="#ed1c24" opacity="0.5"/><circle cx="356.3" cy="158.0" r="5" fill="#ed1c24" opacity="0.5"/><circle cx="356.3" cy="422.0" r="5" fill="#ed1c24" opacity="0.5"/><circle cx="268.0" cy="246.3" r="5" fill="#ed1c24" opacity="0.5"/><circle cx="532.0" cy="246.3" r="5" fill="#ed1c24" opacity="0.5"/><circle cx="378.2" cy="158.0" r="5" fill="#ed1c24" opacity="0.5"/><circle cx="378.2" cy="422.0" r="5" fill="#ed1c24" opacity="0.5"/><circle cx="268.0" cy="268.2" r="5" fill="#ed1c24" opacity="0.5"/><circle cx="532.0" cy="268.2" r="5" fill="#ed1c24" opacity="0.5"/><circle cx="400.0" cy="158.0" r="5" fill="#ed1c24" opacity="0.5"/><circle cx="400.0" cy="422.0" r="5" fill="#ed1c24" opacity="0.5"/><circle cx="268.0" cy="290.0" r="5" fill="#ed1c24" opacity="0.5"/><circle cx="532.0" cy="290.0" r="5" fill="#ed1c24" opacity="0.5"/><circle cx="421.8" cy="158.0" r="5" fill="#ed1c24" opacity="0.5"/><circle cx="421.8" cy="422.0" r="5" fill="#ed1c24" opacity="0.5"/><circle cx="268.0" cy="311.8" r="5" fill="#ed1c24" opacity="0.5"/><circle cx="532.0" cy="311.8" r="5" fill="#ed1c24" opacity="0.5"/><circle cx="443.7" cy="158.0" r="5" fill="#ed1c24" opacity="0.5"/><circle cx="443.7" cy="422.0" r="5" fill="#ed1c24" opacity="0.5"/><circle cx="268.0" cy="333.7" r="5" fill="#ed1c24" opacity="0.5"/><circle cx="532.0" cy="333.7" r="5" fill="#ed1c24" opacity="0.5"/><circle cx="465.5" cy="158.0" r="5" fill="#ed1c24" opacity="0.5"/><circle cx="465.5" cy="422.0" r="5" fill="#ed1c24" opacity="0.5"/><circle cx="268.0" cy="355.5" r="5" fill="#ed1c24" opacity="0.5"/><circle cx="532.0" cy="355.5" r="5" fill="#ed1c24" opacity="0.5"/><circle cx="487.3" cy="158.0" r="5" fill="#ed1c24" opacity="0.5"/><circle cx="487.3" cy="422.0" r="5" fill="#ed1c24" opacity="0.5"/><circle cx="268.0" cy="377.3" r="5" fill="#ed1c24" opacity="0.5"/><circle cx="532.0" cy="377.3" r="5" fill="#ed1c24" opacity="0.5"/><circle cx="509.2" cy="158.0" r="5" fill="#ed1c24" opacity="0.5"/><circle cx="509.2" cy="422.0" r="5" fill="#ed1c24" opacity="0.5"/><circle cx="268.0" cy="399.2" r="5" fill="#ed1c24" opacity="0.5"/><circle cx="532.0" cy="399.2" r="5" fill="#ed1c24" opacity="0.5"/><circle cx="531.0" cy="158.0" r="5" fill="#ed1c24" opacity="0.5"/><circle cx="531.0" cy="422.0" r="5" fill="#ed1c24" opacity="0.5"/><circle cx="268.0" cy="421.0" r="5" fill="#ed1c24" opacity="0.5"/><circle cx="532.0" cy="421.0" r="5" fill="#ed1c24" opacity="0.5"/>
    <rect x="441" y="413" width="14" height="8" rx="2" fill="#4b5563"/><rect x="463" y="413" width="14" height="8" rx="2" fill="#4b5563"/><rect x="485" y="413" width="14" height="8" rx="2" fill="#4b5563"/><rect x="441" y="426" width="14" height="8" rx="2" fill="#4b5563"/><rect x="463" y="426" width="14" height="8" rx="2" fill="#4b5563"/><rect x="485" y="426" width="14" height="8" rx="2" fill="#4b5563"/>
    <rect x="285" y="175" width="230" height="230" rx="6" fill="url(#metal)"/>
    <rect x="301" y="191" width="198" height="198" rx="4"
          fill="none" stroke="#ed1c24" stroke-width="2.5" opacity="0.8"/>
    <rect x="319" y="209" width="162" height="162" rx="3"
          fill="#ed1c24" opacity="0.10"/>
    <!-- the orientation triangle every socket has -->
    <path d="M 265 405 l 20 0 l 0 20 z" fill="#ed1c24" opacity="0.9"/>
  </g>
</svg>
