<svg xmlns="http://www.w3.org/2000/svg" viewBox="0 0 800 600" role="img"
     aria-label="PRIME B760M-A WIFI Motherboard">
  <defs>
    <linearGradient id="bg" x1="0" y1="0" x2="1" y2="1">
      <stop offset="0%" stop-color="#f8fafc"/>
      <stop offset="100%" stop-color="#e2e8f0"/>
    </linearGradient>
    <linearGradient id="screen" x1="0" y1="0" x2="1" y2="1">
      <stop offset="0%" stop-color="#0f172a"/>
      <stop offset="100%" stop-color="#334155"/>
    </linearGradient>
    <linearGradient id="metal" x1="0" y1="0" x2="1" y2="1">
      <stop offset="0%" stop-color="#e2e8f0"/>
      <stop offset="45%" stop-color="#94a3b8"/>
      <stop offset="100%" stop-color="#cbd5e1"/>
    </linearGradient>
    <filter id="soft" x="-20%" y="-20%" width="140%" height="140%">
      <feDropShadow dx="0" dy="10" stdDeviation="14" flood-color="#0f172a" flood-opacity="0.18"/>
    </filter>
  </defs>

  <rect width="800" height="600" fill="url(#bg)"/>
  <circle cx="690" cy="110" r="150" fill="#00539b" opacity="0.10"/>
  <ellipse cx="400" cy="530" rx="250" ry="26" fill="#0f172a" opacity="0.07"/>

  <g filter="url(#soft)">
    
    <rect x="200" y="100" width="400" height="400" rx="10" fill="#14532d"/>
    <rect x="210" y="110" width="380" height="380" rx="6"
          fill="none" stroke="#00539b" stroke-width="1.5" opacity="0.3"/>

    <rect x="242" y="156" width="120" height="120" rx="6" fill="#1f2937"/>
    <rect x="258" y="172" width="88" height="88" rx="4" fill="url(#metal)"/>

    <rect x="400" y="146" width="12" height="200" rx="3" fill="#00539b" opacity="0.85"/><rect x="422" y="146" width="12" height="200" rx="3" fill="#00539b" opacity="0.55"/><rect x="444" y="146" width="12" height="200" rx="3" fill="#00539b" opacity="0.85"/><rect x="466" y="146" width="12" height="200" rx="3" fill="#00539b" opacity="0.55"/>

    <rect x="242" y="350" width="90" height="90" rx="6" fill="#374151"/>
    <rect x="250" y="358" width="7" height="74" rx="2" fill="#4b5563"/><rect x="264" y="358" width="7" height="74" rx="2" fill="#4b5563"/><rect x="278" y="358" width="7" height="74" rx="2" fill="#4b5563"/><rect x="292" y="358" width="7" height="74" rx="2" fill="#4b5563"/><rect x="306" y="358" width="7" height="74" rx="2" fill="#4b5563"/><rect x="320" y="358" width="7" height="74" rx="2" fill="#4b5563"/>
    <rect x="360" y="386" width="180" height="18" rx="4" fill="#00539b" opacity="0.85"/>
    <rect x="360" y="430" width="110" height="14" rx="4" fill="#374151"/>

    <rect x="216" y="116" width="150" height="30" rx="4" fill="#1f2937"/>
  </g>
</svg>
