<svg xmlns="http://www.w3.org/2000/svg" viewBox="0 0 800 600" role="img"
     aria-label="Vengeance LPX 16GB (2x8GB) DDR4 3200MHz">
  <defs>
    <linearGradient id="bg" x1="0" y1="0" x2="1" y2="1">
      <stop offset="0%" stop-color="#f8fafc"/>
      <stop offset="100%" stop-color="#e2e8f0"/>
    </linearGradient>
    <linearGradient id="screen" x1="0" y1="0" x2="1" y2="1">
      <stop offset="0%" stop-color="#0f172a"/>
      <stop offset="100%" stop-color="#334155"/>
    </linearGradient>
    <linearGradient id="metal" x1="0" y1="0" x2="1" y2="1">
      <stop offset="0%" stop-color="#e2e8f0"/>
      <stop offset="45%" stop-color="#94a3b8"/>
      <stop offset="100%" stop-color="#cbd5e1"/>
    </linearGradient>
    <filter id="soft" x="-20%" y="-20%" width="140%" height="140%">
      <feDropShadow dx="0" dy="10" stdDeviation="14" flood-color="#0f172a" flood-opacity="0.18"/>
    </filter>
  </defs>

  <rect width="800" height="600" fill="url(#bg)"/>
  <circle cx="690" cy="110" r="150" fill="#facc15" opacity="0.10"/>
  <ellipse cx="400" cy="530" rx="250" ry="26" fill="#0f172a" opacity="0.07"/>

  <g filter="url(#soft)">
    
      <rect x="251" y="135" width="132" height="330" rx="8" fill="#14532d"/>
      <rect x="243" y="135" width="148" height="260" rx="8" fill="#facc15"/>
      <rect x="255" y="153" width="124" height="224" rx="5" fill="#1f2937" opacity="0.28"/>
      <rect x="265" y="169" width="104" height="34" rx="3" fill="#0f172a" opacity="0.45"/><rect x="265" y="221" width="104" height="34" rx="3" fill="#0f172a" opacity="0.45"/><rect x="265" y="273" width="104" height="34" rx="3" fill="#0f172a" opacity="0.45"/><rect x="265" y="325" width="104" height="34" rx="3" fill="#0f172a" opacity="0.45"/>
      <rect x="251" y="439" width="55.44" height="26" rx="2" fill="#d4a017"/>
      <rect x="317" y="439" width="66" height="26" rx="2" fill="#d4a017"/>
      <rect x="417" y="135" width="132" height="330" rx="8" fill="#14532d"/>
      <rect x="409" y="135" width="148" height="260" rx="8" fill="#facc15"/>
      <rect x="421" y="153" width="124" height="224" rx="5" fill="#1f2937" opacity="0.28"/>
      <rect x="431" y="169" width="104" height="34" rx="3" fill="#0f172a" opacity="0.45"/><rect x="431" y="221" width="104" height="34" rx="3" fill="#0f172a" opacity="0.45"/><rect x="431" y="273" width="104" height="34" rx="3" fill="#0f172a" opacity="0.45"/><rect x="431" y="325" width="104" height="34" rx="3" fill="#0f172a" opacity="0.45"/>
      <rect x="417" y="439" width="55.44" height="26" rx="2" fill="#d4a017"/>
      <rect x="483" y="439" width="66" height="26" rx="2" fill="#d4a017"/>
  </g>
</svg>
